PathFileType  4	(X/Y/Z) C:\Users\antoi\Documents\MyRepositories\mobilecap\ResultsAnalysis
DataRate	CameraRate	NumFrames	NumMarkers	Units	OrigDataRate	OrigDataStartFrame	OrigNumFrames
100.0	100.0	4	51	mm	100.0	333	1328
Frame#	Time	r_knee			r_shank_antsup			r_ankle			r_calc			r_5meta			r_toe			L_knee			L_shank_antsup			L_ankle			L_calc			L_5meta			L_toe			r_sh2			r_sh3			r_sh4			L_sh2			L_sh3			r_thigh1			r_thigh2			r_thigh3			r_thigh4			r_thigh5			L_thigh1			L_thigh2			L_thigh3			L_thigh4			r.ASIS			r.PSIS			L.ASIS			L.PSIS			C7			R_Shoulder			L_Shoulder			R_Sternum			L_Sternum			R_humerus			R_elbow_med			R_elbow_lat			R_forearm			R_wrist_radius			R_wrist_ulna			L_humerus			L_elbow_med			L_elbow_lat			L_forearm			L_wrist_radius			L_wrist_ulna			R_HJC			L_HJC			R_HJC_reg			L_HJC_reg			
		X1	Y1	Z1	X2	Y2	Z2	X3	Y3	Z3	X4	Y4	Z4	X5	Y5	Z5	X6	Y6	Z6	X7	Y7	Z7	X8	Y8	Z8	X9	Y9	Z9	X10	Y10	Z10	X11	Y11	Z11	X12	Y12	Z12	X13	Y13	Z13	X14	Y14	Z14	X15	Y15	Z15	X16	Y16	Z16	X17	Y17	Z17	X18	Y18	Z18	X19	Y19	Z19	X20	Y20	Z20	X21	Y21	Z21	X22	Y22	Z22	X23	Y23	Z23	X24	Y24	Z24	X25	Y25	Z25	X26	Y26	Z26	X27	Y27	Z27	X28	Y28	Z28	X29	Y29	Z29	X30	Y30	Z30	X31	Y31	Z31	X32	Y32	Z32	X33	Y33	Z33	X34	Y34	Z34	X35	Y35	Z35	X36	Y36	Z36	X37	Y37	Z37	X38	Y38	Z38	X39	Y39	Z39	X40	Y40	Z40	X41	Y41	Z41	X42	Y42	Z42	X43	Y43	Z43	X44	Y44	Z44	X45	Y45	Z45	X46	Y46	Z46	X47	Y47	Z47	X48	Y48	Z48	X49	Y49	Z49	X50	Y50	Z50	X51	Y51	Z51	

333	3.32000000	-106.79393	505.25308	-408.48185	-79.53940	378.09680	-411.76196	-281.04316	102.93621	-414.63623	-348.90222	67.39756	-462.49240	-162.91856	39.19297	-348.02813	-117.36381	59.77625	-416.92157	-127.26805	497.46873	-927.03287	-81.70763	388.29520	-918.21563	-282.28016	96.14639	-917.64888	-352.99398	69.66314	-869.32059	-150.49726	34.55959	-952.15616	-117.45177	57.90001	-883.08343	-119.30467	270.16317	-432.43171	-144.25093	392.23582	-371.15250	-176.10456	278.37147	-371.63908	-159.07438	416.46626	-955.98573	-180.62750	297.50207	-969.70039	-237.53775	716.15035	-478.99698	-142.80135	657.06136	-466.49683	-143.17674	625.12111	-406.75916	-286.89939	655.63719	-395.64498	-184.79744	591.68705	-389.77691	-288.03971	706.73638	-885.55630	-168.22378	641.19891	-905.18100	-343.28853	617.57553	-926.26586	-223.22067	550.48943	-941.73787	-346.04474	777.62535	-532.93576	-504.20386	867.09851	-610.42662	-343.90018	757.48994	-794.65151	-509.68492	864.70509	-709.28325	-250.49547	1269.14595	-666.80893	-165.53757	1197.07840	-486.90730	-158.38418	1203.99349	-827.81794	-129.67756	1159.31315	-642.44237	-132.86476	1155.51718	-685.03556	-130.72894	1048.84109	-403.93777	-166.69683	816.58854	-408.86969	-131.00640	860.61731	-330.56528	-33.03467	954.49841	-426.72387	40.66472	1004.71659	-496.69916	71.34964	975.85852	-495.17406	-106.60247	1057.19682	-911.30466	-133.57842	823.06388	-928.49437	-75.04391	872.85444	-976.31052	-32.69949	960.27658	-845.89366	36.10285	1008.08964	-767.68412	67.77826	972.40308	-769.69943	-439.88390	724.40580	-558.92674	-446.64882	702.07867	-771.03839	-433.03386	721.17619	-563.69154	-442.62189	716.98733	-736.62426	
334	3.33000000	-107.07618	505.86365	-409.13518	-80.18907	378.74211	-412.10461	-281.12254	102.94291	-414.67087	-348.91258	67.41046	-462.42436	-162.92557	39.22227	-348.00134	-117.35654	59.76216	-416.90614	-127.93522	498.27767	-927.07414	-82.63184	388.83044	-917.97239	-282.41541	96.15415	-917.53303	-353.00560	69.65833	-869.34364	-150.50627	34.54361	-952.16108	-117.58641	58.20251	-883.35541	-119.73682	270.65003	-432.63615	-145.06137	392.63860	-371.44765	-176.55153	278.74407	-371.79159	-159.98031	417.06713	-955.78987	-181.41152	297.91480	-969.55413	-233.36363	720.37635	-478.08831	-139.86796	658.61743	-466.03247	-141.06057	626.31810	-406.55713	-284.26128	659.92206	-395.57044	-183.53614	593.64014	-390.10045	-284.43159	711.10833	-886.60810	-165.83395	642.88615	-905.96434	-341.71425	622.55705	-925.85698	-223.17620	552.98574	-941.52349	-340.13560	785.05812	-531.52640	-500.98013	876.31853	-610.27728	-340.49194	766.09774	-795.83831	-506.53513	873.84824	-709.05699	-248.77890	1279.88718	-666.98057	-163.86678	1207.76806	-487.00214	-156.96171	1214.67306	-828.34094	-127.68946	1170.41985	-642.72751	-130.86486	1166.63700	-685.27851	-129.87349	1059.11315	-404.55938	-167.75787	826.89165	-409.17379	-131.61036	870.76384	-330.99852	-32.98986	963.84570	-427.26496	41.14641	1013.89217	-497.18417	71.61385	984.41735	-495.49184	-106.57111	1066.81751	-911.63688	-136.30942	832.86262	-927.89516	-77.27240	881.90620	-976.10746	-33.52253	969.09981	-845.97710	35.98499	1016.39504	-768.03303	67.02793	979.97484	-769.57503	-435.63911	732.82038	-558.90150	-443.37428	710.92976	-771.02393	-429.09864	729.03943	-562.59755	-438.91405	724.67363	-737.16665	
335	3.34000000	-107.67914	506.52344	-409.83287	-80.99323	379.38517	-412.39921	-281.23482	102.93129	-414.68595	-348.93869	67.37718	-462.40671	-162.91810	39.18983	-348.01540	-117.33625	59.76147	-416.86893	-128.82157	499.16232	-926.98502	-83.77663	389.59359	-917.83070	-282.57005	96.16431	-917.43729	-353.01434	69.66457	-869.36250	-150.50972	34.53386	-952.16389	-117.60811	58.15828	-883.33400	-120.22795	271.16854	-432.85592	-145.97556	393.07936	-371.84025	-177.11440	279.23751	-371.88997	-161.22399	417.65964	-955.64731	-182.30221	298.36027	-969.42448	-229.22283	724.19399	-477.66404	-137.16231	660.19501	-465.62854	-139.26115	627.38980	-406.44155	-281.68083	664.18440	-395.67559	-182.53690	595.65308	-390.55302	-280.93690	715.53904	-887.69004	-163.80039	644.71875	-906.92702	-340.17286	627.67604	-925.69978	-223.24609	555.54741	-941.14962	-334.12230	791.70301	-531.08604	-497.68219	885.48364	-610.41726	-337.67717	774.86707	-795.84209	-503.37799	883.02282	-709.04809	-247.24226	1290.62685	-667.16692	-162.35724	1218.45709	-487.13452	-155.74864	1225.37146	-828.85849	-125.82333	1181.54299	-642.89696	-129.04187	1177.82947	-685.47845	-129.13203	1069.27722	-405.06225	-168.93826	837.41566	-409.84335	-132.41095	880.93232	-331.47167	-33.09272	973.13979	-427.75876	41.50657	1022.90202	-497.45824	71.79631	992.93566	-495.85438	-106.67524	1076.59806	-911.97472	-139.14323	842.84338	-927.61501	-79.56992	891.13016	-975.97261	-34.48592	978.04851	-846.17851	35.73105	1024.82165	-768.54005	66.18065	987.82771	-769.86941	-431.70167	740.95987	-559.07821	-440.47219	719.82080	-771.23986	-425.16816	737.32688	-562.12094	-435.26056	732.96742	-736.88329	
336	3.35000000	-108.48833	507.39806	-410.39185	-82.00630	380.09776	-412.70505	-281.38903	102.92497	-414.70796	-348.98476	67.33742	-462.37030	-162.90151	39.13933	-348.06419	-117.34260	59.76959	-416.84003	-129.89588	500.13170	-926.70015	-85.10227	390.49542	-917.75988	-282.74718	96.22369	-917.47089	-353.03119	69.66220	-869.36602	-150.51647	34.53071	-952.17135	-117.53808	57.87532	-883.09810	-120.82305	271.73914	-433.02520	-146.97775	393.69809	-372.26449	-177.79434	279.73265	-372.06865	-162.68080	418.30581	-955.51111	-183.34262	298.91608	-969.32879	-225.08207	727.89626	-477.04804	-134.68429	661.68784	-465.31695	-137.73130	628.44873	-406.45744	-279.24250	668.50947	-395.95118	-181.82193	597.71846	-391.00395	-277.53790	719.98230	-888.78269	-162.06900	646.52279	-907.73061	-338.71794	632.90568	-925.67319	-223.40006	558.18223	-940.69540	-328.10978	798.35333	-530.13204	-494.36153	894.66380	-610.48470	-334.77974	783.71913	-795.64178	-500.30596	892.32310	-709.07853	-245.88218	1301.28432	-667.32397	-160.96705	1229.13609	-487.27313	-154.68196	1236.07838	-829.33689	-124.11055	1192.75741	-643.12482	-127.37732	1189.04337	-685.68966	-128.50279	1079.44128	-405.34536	-170.17828	848.09833	-410.83610	-133.39443	890.96316	-332.12580	-33.28601	982.45427	-428.24832	41.68776	1031.69227	-497.78058	71.78884	1001.59010	-496.31117	-106.95712	1086.39276	-912.33047	-142.07841	852.93171	-927.45321	-81.96343	900.35555	-975.77436	-35.62945	987.09780	-846.43283	35.32107	1033.23521	-769.07638	65.27705	995.92585	-770.51832	-427.85836	749.16721	-559.07328	-437.44582	728.75958	-771.27222	-421.15293	745.46433	-561.11940	-431.71660	741.30590	-736.30590	
